{"title":"What History Forgot S01E01 Icons of Freedom DSR EN-SUB x264-W4F","uid":12090435,"size":364721496,"categoryP":"video","categoryS":"tv_shows","magnet":"?xt=urn:btih:e0c47a52912910a64b5b3a13ff599aac92d0c298&amp;dn=What+History+Forgot+S01E01+Icons+of+Freedom+DSR+EN-SUB+x264-W4F&amp;tr=udp%3A%2F%2Ftracker.openbittorrent.com%3A80&amp;tr=udp%3A%2F%2Fopen.demonii.com%3A1337&amp;tr=udp%3A%2F%2Ftracker.coppersurfer.tk%3A6969&amp;tr=udp%3A%2F%2Fexodus.desync.com%3A6969","seeders":0,"leechers":0,"uploader":"Mulva1989","files":2,"time":1436029360,"description":"What History Forgot S01E01 Icons of Freedom DSR EN-SUB x264-W4F\n\nWe know that World War I was fought in Europe, but did you know the attack on American soil that nearly destroyed the Statue of Liberty? We've all played the board game Monopoly, but during WWII it was a real life get out of jail free card for POWs. We all know the music to the Star Spangled Banner - but what is its connection to a lurid drinking tune from a country we were once at war with? And Amelia Earhart - was she really the best female pilot of her time? Host Joe Moniaci uncovers the secrets behind some of America's biggest icons.\n\nScreens @ &lt;a href=&quot;\nhttps://yuq.me/users/50/321/fFjbRcOZg2.jpg&quot; rel=&quot;nofollow&quot; target=&quot;_NEW&quot;&gt;\nhttps://yuq.me/users/50/321/fFjbRcOZg2.jpg&lt;/a&gt; &lt;a href=&quot;\nhttps://yuq.me/users/50/321/SCo15uUcGe.jpg&quot; rel=&quot;nofollow&quot; target=&quot;_NEW&quot;&gt;\nhttps://yuq.me/users/50/321/SCo15uUcGe.jpg&lt;/a&gt;\n\nFormat : MPEG-4\nFormat profile : Base Media\nCodec ID : isom\nFile size : 348 MiB\nDuration : 44mn 33s\nOverall bit rate mode : Variable\nOverall bit rate : 1 091 Kbps\nEncoded date : UTC 2015-06-03 22:13:22\nTagged date : UTC 2015-06-03 22:13:22\n\nVideo\nID : 1\nFormat : AVC\nFormat/Info : Advanced Video Codec\nFormat profile : &lt;a class=&quot;__cf_email__&quot; href=&quot;/cdn-cgi/l/email-protection&quot; data-cfemail=&quot;f0b8999798b0bcc3dec1&quot;&gt;[email&amp;#160;protected]&lt;/a&gt;&lt;script data-cfhash='f9e31' type=&quot;text/javascript&quot;&gt;\n/* &lt;![CDATA[ */!function(){try{var t=&quot;currentScript&quot;in document?document.currentScript:function(){for(var t=document.getElementsByTagName(&quot;script&quot;),e=t.length;e--;)if(t[e].getAttribute(&quot;data-cfhash&quot;))return t[e]}();if(t&amp;&amp;t.previousSibling){var e,r,n,i,c=t.previousSibling,a=c.getAttribute(&quot;data-cfemail&quot;);if(a){for(e=&quot;&quot;,r=parseInt(a.substr(0,2),16),n=2;a.length-n;n+=2)i=parseInt(a.substr(n,2),16)^r,e+=String.fromCharCode(i);e=document.createTextNode(e),c.parentNode.replaceChild(e,c)}t.parentNode.removeChild(t);}}catch(u){}}()/* ]]&gt; */&lt;/script&gt;\nFormat settings, CABAC : Yes\nFormat settings, ReFrames : 5 frames\nCodec ID : avc1\nCodec ID/Info : Advanced Video Coding\nDuration : 44mn 32s\nBit rate : 950 Kbps\nMaximum bit rate : 3 951 Kbps\nWidth : 640 pixels\nHeight : 358 pixels\nDisplay aspect ratio : 16:9\nFrame rate mode : Constant\nFrame rate : 29.970 fps\nColor space : YUV\nChroma subsampling : 4:2:0\nBit depth : 8 bits\nScan type : Progressive\nBits/(Pixel*Frame) : 0.138\nStream size : 303 MiB (87%)\nWriting library : x264 core 146 r2538 121396c\nEncoding settings : cabac=1 / ref=5 / deblock=1:-1:-1 / analyse=0x3:0x113 / me=umh / subme=8 / psy=1 / psy_rd=1.00:0.15 / mixed_ref=1 / me_range=16 / chroma_me=1 / trellis=1 / 8x8dct=1 / cqm=0 / deadzone=21,11 / fast_pskip=1 / chroma_qp_offset=-3 / threads=12 / lookahead_threads=2 / sliced_threads=0 / nr=0 / decimate=1 / interlaced=0 / bluray_compat=0 / constrained_intra=0 / bframes=3 / b_pyramid=2 / b_adapt=2 / b_bias=0 / direct=3 / weightb=1 / open_gop=0 / weightp=2 / keyint=250 / keyint_min=25 / scenecut=40 / intra_refresh=0 / rc_lookahead=50 / rc=crf / mbtree=1 / crf=21.0 / qcomp=0.60 / qpmin=0 / qpmax=69 / qpstep=4 / ip_ratio=1.40 / aq=1:1.00\nEncoded date : UTC 2015-06-03 22:13:22\nTagged date : UTC 2015-06-03 22:13:25\n\nAudio\nID : 2\nFormat : AAC\nFormat/Info : Advanced Audio Codec\nFormat profile : LC\nCodec ID : 40\nDuration : 44mn 32s\nBit rate mode : Variable\nBit rate : 137 Kbps\nMaximum bit rate : 174 Kbps\nChannel(s) : 2 channels\nChannel positions : Front: L R\nSampling rate : 48.0 KHz\nCompression mode : Lossy\nStream size : 43.7 MiB (13%)\nLanguage : English\nEncoded date : UTC 2015-06-03 22:13:24\nTagged date : UTC 2015-06-03 22:13:25\n\nText\nID : 3\nFormat : Timed Text\nCodec ID : tx3g\nDuration : 44mn 33s\nBit rate mode : Variable\nBit rate : 153 bps\nStream size : 49.8 KiB (0%)\nLanguage : English\nEncoded date : UTC 2015-06-03 22:13:25\nTagged date : UTC 2015-06-03 22:13:25","torrent":{"xt":"urn:btih:e0c47a52912910a64b5b3a13ff599aac92d0c298","amp;dn":"What+History+Forgot+S01E01+Icons+of+Freedom+DSR+EN-SUB+x264-W4F","amp;tr":["udp%3A%2F%2Ftracker.openbittorrent.com%3A80","udp%3A%2F%2Fopen.demonii.com%3A1337","udp%3A%2F%2Ftracker.coppersurfer.tk%3A6969","udp%3A%2F%2Fexodus.desync.com%3A6969"],"infoHash":"e0c47a52912910a64b5b3a13ff599aac92d0c298","infoHashBuffer":{"type":"Buffer","data":[224,196,122,82,145,41,16,166,75,91,58,19,255,89,154,172,146,208,194,152]},"announce":[],"urlList":[]}}